<mxfile host="Electron" modified="2024-01-09T11:37:20.788Z" agent="Mozilla/5.0 (Windows NT 10.0; Win64; x64) AppleWebKit/537.36 (KHTML, like Gecko) draw.io/22.1.2 Chrome/114.0.5735.289 Electron/25.9.4 Safari/537.36" etag="r1J1iwr0d2uTTUD_8UMv" version="22.1.2" type="device">
  <diagram name="Pagina-1" id="KrAMYKN802Sa1sQlcGRf">
    <mxGraphModel dx="1416" dy="818" grid="1" gridSize="10" guides="1" tooltips="1" connect="1" arrows="1" fold="1" page="1" pageScale="1" pageWidth="827" pageHeight="1169" math="0" shadow="0">
      <root>
        <mxCell id="0" />
        <mxCell id="1" parent="0" />
        <mxCell id="X-2cT9AtNMiIcICBBnYA-75" value="" style="rounded=0;whiteSpace=wrap;html=1;strokeColor=none;" parent="1" vertex="1">
          <mxGeometry x="200" y="280" width="640" height="250" as="geometry" />
        </mxCell>
        <mxCell id="X-2cT9AtNMiIcICBBnYA-1" value="" style="endArrow=classic;html=1;rounded=0;" parent="1" edge="1">
          <mxGeometry width="50" height="50" relative="1" as="geometry">
            <mxPoint x="320" y="360" as="sourcePoint" />
            <mxPoint x="730" y="360" as="targetPoint" />
          </mxGeometry>
        </mxCell>
        <mxCell id="X-2cT9AtNMiIcICBBnYA-3" value="a" style="rhombus;whiteSpace=wrap;html=1;" parent="1" vertex="1">
          <mxGeometry x="340" y="310" width="40" height="40" as="geometry" />
        </mxCell>
        <mxCell id="X-2cT9AtNMiIcICBBnYA-4" value="b" style="rhombus;whiteSpace=wrap;html=1;" parent="1" vertex="1">
          <mxGeometry x="420" y="310" width="40" height="40" as="geometry" />
        </mxCell>
        <mxCell id="X-2cT9AtNMiIcICBBnYA-5" value="c" style="rhombus;whiteSpace=wrap;html=1;" parent="1" vertex="1">
          <mxGeometry x="500" y="310" width="40" height="40" as="geometry" />
        </mxCell>
        <mxCell id="X-2cT9AtNMiIcICBBnYA-6" value="d" style="rhombus;whiteSpace=wrap;html=1;" parent="1" vertex="1">
          <mxGeometry x="580" y="310" width="40" height="40" as="geometry" />
        </mxCell>
        <mxCell id="X-2cT9AtNMiIcICBBnYA-7" value="e" style="rhombus;whiteSpace=wrap;html=1;" parent="1" vertex="1">
          <mxGeometry x="660" y="310" width="40" height="40" as="geometry" />
        </mxCell>
        <mxCell id="X-2cT9AtNMiIcICBBnYA-8" value="" style="endArrow=classic;html=1;rounded=0;" parent="1" edge="1">
          <mxGeometry width="50" height="50" relative="1" as="geometry">
            <mxPoint x="320" y="480" as="sourcePoint" />
            <mxPoint x="730" y="480" as="targetPoint" />
          </mxGeometry>
        </mxCell>
        <mxCell id="X-2cT9AtNMiIcICBBnYA-26" value="" style="endArrow=none;html=1;rounded=0;" parent="1" edge="1">
          <mxGeometry width="50" height="50" relative="1" as="geometry">
            <mxPoint x="359.9" y="364" as="sourcePoint" />
            <mxPoint x="359.9" y="356" as="targetPoint" />
          </mxGeometry>
        </mxCell>
        <mxCell id="X-2cT9AtNMiIcICBBnYA-27" value="" style="endArrow=none;html=1;rounded=0;" parent="1" edge="1">
          <mxGeometry width="50" height="50" relative="1" as="geometry">
            <mxPoint x="439.9" y="364" as="sourcePoint" />
            <mxPoint x="439.9" y="356" as="targetPoint" />
          </mxGeometry>
        </mxCell>
        <mxCell id="X-2cT9AtNMiIcICBBnYA-28" value="" style="endArrow=none;html=1;rounded=0;" parent="1" edge="1">
          <mxGeometry width="50" height="50" relative="1" as="geometry">
            <mxPoint x="519.9" y="364" as="sourcePoint" />
            <mxPoint x="519.9" y="356" as="targetPoint" />
          </mxGeometry>
        </mxCell>
        <mxCell id="X-2cT9AtNMiIcICBBnYA-29" value="" style="endArrow=none;html=1;rounded=0;" parent="1" edge="1">
          <mxGeometry width="50" height="50" relative="1" as="geometry">
            <mxPoint x="599.9" y="364" as="sourcePoint" />
            <mxPoint x="599.9" y="356" as="targetPoint" />
          </mxGeometry>
        </mxCell>
        <mxCell id="X-2cT9AtNMiIcICBBnYA-30" value="" style="endArrow=none;html=1;rounded=0;" parent="1" edge="1">
          <mxGeometry width="50" height="50" relative="1" as="geometry">
            <mxPoint x="679.9" y="364" as="sourcePoint" />
            <mxPoint x="679.9" y="356" as="targetPoint" />
          </mxGeometry>
        </mxCell>
        <mxCell id="X-2cT9AtNMiIcICBBnYA-31" value="" style="endArrow=none;html=1;rounded=0;" parent="1" edge="1">
          <mxGeometry width="50" height="50" relative="1" as="geometry">
            <mxPoint x="359.92999999999995" y="484" as="sourcePoint" />
            <mxPoint x="359.92999999999995" y="476" as="targetPoint" />
          </mxGeometry>
        </mxCell>
        <mxCell id="X-2cT9AtNMiIcICBBnYA-32" value="" style="endArrow=none;html=1;rounded=0;" parent="1" edge="1">
          <mxGeometry width="50" height="50" relative="1" as="geometry">
            <mxPoint x="439.92999999999995" y="484" as="sourcePoint" />
            <mxPoint x="439.92999999999995" y="476" as="targetPoint" />
          </mxGeometry>
        </mxCell>
        <mxCell id="X-2cT9AtNMiIcICBBnYA-33" value="" style="endArrow=none;html=1;rounded=0;" parent="1" edge="1">
          <mxGeometry width="50" height="50" relative="1" as="geometry">
            <mxPoint x="519.93" y="484" as="sourcePoint" />
            <mxPoint x="519.93" y="476" as="targetPoint" />
          </mxGeometry>
        </mxCell>
        <mxCell id="X-2cT9AtNMiIcICBBnYA-34" value="" style="endArrow=none;html=1;rounded=0;" parent="1" edge="1">
          <mxGeometry width="50" height="50" relative="1" as="geometry">
            <mxPoint x="599.93" y="484" as="sourcePoint" />
            <mxPoint x="599.93" y="476" as="targetPoint" />
          </mxGeometry>
        </mxCell>
        <mxCell id="X-2cT9AtNMiIcICBBnYA-35" value="" style="endArrow=none;html=1;rounded=0;" parent="1" edge="1">
          <mxGeometry width="50" height="50" relative="1" as="geometry">
            <mxPoint x="679.93" y="484" as="sourcePoint" />
            <mxPoint x="679.93" y="476" as="targetPoint" />
          </mxGeometry>
        </mxCell>
        <mxCell id="X-2cT9AtNMiIcICBBnYA-36" value="time" style="text;html=1;align=center;verticalAlign=middle;resizable=0;points=[];autosize=1;strokeColor=none;fillColor=none;" parent="1" vertex="1">
          <mxGeometry x="725" y="345" width="50" height="30" as="geometry" />
        </mxCell>
        <mxCell id="X-2cT9AtNMiIcICBBnYA-37" value="time" style="text;html=1;align=center;verticalAlign=middle;resizable=0;points=[];autosize=1;strokeColor=none;fillColor=none;" parent="1" vertex="1">
          <mxGeometry x="725" y="465" width="50" height="30" as="geometry" />
        </mxCell>
        <mxCell id="X-2cT9AtNMiIcICBBnYA-72" value="s" style="text;html=1;align=center;verticalAlign=middle;resizable=0;points=[];autosize=1;strokeColor=none;fillColor=none;" parent="1" vertex="1">
          <mxGeometry x="291" y="345" width="30" height="30" as="geometry" />
        </mxCell>
        <mxCell id="X-2cT9AtNMiIcICBBnYA-73" value="zipWithIndex(s)" style="text;html=1;align=center;verticalAlign=middle;resizable=0;points=[];autosize=1;strokeColor=none;fillColor=none;" parent="1" vertex="1">
          <mxGeometry x="213" y="465" width="110" height="30" as="geometry" />
        </mxCell>
        <mxCell id="X-2cT9AtNMiIcICBBnYA-143" value="0" style="text;html=1;align=center;verticalAlign=middle;resizable=0;points=[];autosize=1;strokeColor=none;fillColor=none;" parent="1" vertex="1">
          <mxGeometry x="345" y="478" width="30" height="30" as="geometry" />
        </mxCell>
        <mxCell id="X-2cT9AtNMiIcICBBnYA-144" value="1" style="text;html=1;align=center;verticalAlign=middle;resizable=0;points=[];autosize=1;strokeColor=none;fillColor=none;" parent="1" vertex="1">
          <mxGeometry x="425" y="478" width="30" height="30" as="geometry" />
        </mxCell>
        <mxCell id="X-2cT9AtNMiIcICBBnYA-145" value="2" style="text;html=1;align=center;verticalAlign=middle;resizable=0;points=[];autosize=1;strokeColor=none;fillColor=none;" parent="1" vertex="1">
          <mxGeometry x="505" y="478" width="30" height="30" as="geometry" />
        </mxCell>
        <mxCell id="X-2cT9AtNMiIcICBBnYA-147" value="3" style="text;html=1;align=center;verticalAlign=middle;resizable=0;points=[];autosize=1;strokeColor=none;fillColor=none;" parent="1" vertex="1">
          <mxGeometry x="585" y="478" width="30" height="30" as="geometry" />
        </mxCell>
        <mxCell id="X-2cT9AtNMiIcICBBnYA-148" value="4" style="text;html=1;align=center;verticalAlign=middle;resizable=0;points=[];autosize=1;strokeColor=none;fillColor=none;" parent="1" vertex="1">
          <mxGeometry x="665" y="478" width="30" height="30" as="geometry" />
        </mxCell>
        <mxCell id="X-2cT9AtNMiIcICBBnYA-167" value="" style="rounded=0;whiteSpace=wrap;html=1;" parent="1" vertex="1">
          <mxGeometry x="335" y="428" width="50" height="40" as="geometry" />
        </mxCell>
        <mxCell id="X-2cT9AtNMiIcICBBnYA-168" value="a" style="rhombus;whiteSpace=wrap;html=1;" parent="1" vertex="1">
          <mxGeometry x="340" y="438" width="20" height="20" as="geometry" />
        </mxCell>
        <mxCell id="X-2cT9AtNMiIcICBBnYA-169" value="0" style="ellipse;whiteSpace=wrap;html=1;" parent="1" vertex="1">
          <mxGeometry x="360" y="438" width="20" height="20" as="geometry" />
        </mxCell>
        <mxCell id="X-2cT9AtNMiIcICBBnYA-171" value="" style="rounded=0;whiteSpace=wrap;html=1;" parent="1" vertex="1">
          <mxGeometry x="415" y="428" width="50" height="40" as="geometry" />
        </mxCell>
        <mxCell id="X-2cT9AtNMiIcICBBnYA-172" value="b" style="rhombus;whiteSpace=wrap;html=1;" parent="1" vertex="1">
          <mxGeometry x="420" y="438" width="20" height="20" as="geometry" />
        </mxCell>
        <mxCell id="X-2cT9AtNMiIcICBBnYA-173" value="1" style="ellipse;whiteSpace=wrap;html=1;" parent="1" vertex="1">
          <mxGeometry x="440" y="438" width="20" height="20" as="geometry" />
        </mxCell>
        <mxCell id="X-2cT9AtNMiIcICBBnYA-174" value="" style="rounded=0;whiteSpace=wrap;html=1;" parent="1" vertex="1">
          <mxGeometry x="495" y="428" width="50" height="40" as="geometry" />
        </mxCell>
        <mxCell id="X-2cT9AtNMiIcICBBnYA-175" value="c" style="rhombus;whiteSpace=wrap;html=1;" parent="1" vertex="1">
          <mxGeometry x="500" y="438" width="20" height="20" as="geometry" />
        </mxCell>
        <mxCell id="X-2cT9AtNMiIcICBBnYA-176" value="2" style="ellipse;whiteSpace=wrap;html=1;" parent="1" vertex="1">
          <mxGeometry x="520" y="438" width="20" height="20" as="geometry" />
        </mxCell>
        <mxCell id="X-2cT9AtNMiIcICBBnYA-177" value="" style="rounded=0;whiteSpace=wrap;html=1;" parent="1" vertex="1">
          <mxGeometry x="575" y="428" width="50" height="40" as="geometry" />
        </mxCell>
        <mxCell id="X-2cT9AtNMiIcICBBnYA-178" value="d" style="rhombus;whiteSpace=wrap;html=1;" parent="1" vertex="1">
          <mxGeometry x="580" y="438" width="20" height="20" as="geometry" />
        </mxCell>
        <mxCell id="X-2cT9AtNMiIcICBBnYA-179" value="3" style="ellipse;whiteSpace=wrap;html=1;" parent="1" vertex="1">
          <mxGeometry x="600" y="438" width="20" height="20" as="geometry" />
        </mxCell>
        <mxCell id="X-2cT9AtNMiIcICBBnYA-180" value="" style="rounded=0;whiteSpace=wrap;html=1;" parent="1" vertex="1">
          <mxGeometry x="655" y="428" width="50" height="40" as="geometry" />
        </mxCell>
        <mxCell id="X-2cT9AtNMiIcICBBnYA-181" value="e" style="rhombus;whiteSpace=wrap;html=1;" parent="1" vertex="1">
          <mxGeometry x="660" y="438" width="20" height="20" as="geometry" />
        </mxCell>
        <mxCell id="X-2cT9AtNMiIcICBBnYA-182" value="4" style="ellipse;whiteSpace=wrap;html=1;" parent="1" vertex="1">
          <mxGeometry x="680" y="438" width="20" height="20" as="geometry" />
        </mxCell>
        <mxCell id="X-2cT9AtNMiIcICBBnYA-183" value="0" style="text;html=1;align=center;verticalAlign=middle;resizable=0;points=[];autosize=1;strokeColor=none;fillColor=none;" parent="1" vertex="1">
          <mxGeometry x="345" y="358" width="30" height="30" as="geometry" />
        </mxCell>
        <mxCell id="X-2cT9AtNMiIcICBBnYA-184" value="1" style="text;html=1;align=center;verticalAlign=middle;resizable=0;points=[];autosize=1;strokeColor=none;fillColor=none;" parent="1" vertex="1">
          <mxGeometry x="425" y="358" width="30" height="30" as="geometry" />
        </mxCell>
        <mxCell id="X-2cT9AtNMiIcICBBnYA-185" value="2" style="text;html=1;align=center;verticalAlign=middle;resizable=0;points=[];autosize=1;strokeColor=none;fillColor=none;" parent="1" vertex="1">
          <mxGeometry x="505" y="358" width="30" height="30" as="geometry" />
        </mxCell>
        <mxCell id="X-2cT9AtNMiIcICBBnYA-186" value="3" style="text;html=1;align=center;verticalAlign=middle;resizable=0;points=[];autosize=1;strokeColor=none;fillColor=none;" parent="1" vertex="1">
          <mxGeometry x="585" y="358" width="30" height="30" as="geometry" />
        </mxCell>
        <mxCell id="X-2cT9AtNMiIcICBBnYA-187" value="4" style="text;html=1;align=center;verticalAlign=middle;resizable=0;points=[];autosize=1;strokeColor=none;fillColor=none;" parent="1" vertex="1">
          <mxGeometry x="665" y="358" width="30" height="30" as="geometry" />
        </mxCell>
      </root>
    </mxGraphModel>
  </diagram>
</mxfile>
